<svg xmlns="http://www.w3.org/2000/svg" viewBox="0 0 100 100" preserveAspectRatio="xMidYMid" width="150" height="150" style="shape-rendering: auto; display: block; background: transparent;" xmlns:xlink="http://www.w3.org/1999/xlink"><g><g transform="rotate(0 50 50)"><rect fill="#3b82f6" height="12" width="6" ry="6" rx="3" y="24" x="47"><animate repeatCount="indefinite" begin="-0.4283489096573209s" dur="0.4672897196261683s" keyTimes="0;1" values="1;0" attributeName="opacity"></animate></rect></g><g transform="rotate(30 50 50)"><rect fill="#3b82f6" height="12" width="6" ry="6" rx="3" y="24" x="47"><animate repeatCount="indefinite" begin="-0.38940809968847356s" dur="0.4672897196261683s" keyTimes="0;1" values="1;0" attributeName="opacity"></animate></rect></g><g transform="rotate(60 50 50)"><rect fill="#3b82f6" height="12" width="6" ry="6" rx="3" y="24" x="47"><animate repeatCount="indefinite" begin="-0.3504672897196262s" dur="0.4672897196261683s" keyTimes="0;1" values="1;0" attributeName="opacity"></animate></rect></g><g transform="rotate(90 50 50)"><rect fill="#3b82f6" height="12" width="6" ry="6" rx="3" y="24" x="47"><animate repeatCount="indefinite" begin="-0.31152647975077885s" dur="0.4672897196261683s" keyTimes="0;1" values="1;0" attributeName="opacity"></animate></rect></g><g transform="rotate(120 50 50)"><rect fill="#3b82f6" height="12" width="6" ry="6" rx="3" y="24" x="47"><animate repeatCount="indefinite" begin="-0.2725856697819315s" dur="0.4672897196261683s" keyTimes="0;1" values="1;0" attributeName="opacity"></animate></rect></g><g transform="rotate(150 50 50)"><rect fill="#3b82f6" height="12" width="6" ry="6" rx="3" y="24" x="47"><animate repeatCount="indefinite" begin="-0.23364485981308414s" dur="0.4672897196261683s" keyTimes="0;1" values="1;0" attributeName="opacity"></animate></rect></g><g transform="rotate(180 50 50)"><rect fill="#3b82f6" height="12" width="6" ry="6" rx="3" y="24" x="47"><animate repeatCount="indefinite" begin="-0.19470404984423678s" dur="0.4672897196261683s" keyTimes="0;1" values="1;0" attributeName="opacity"></animate></rect></g><g transform="rotate(210 50 50)"><rect fill="#3b82f6" height="12" width="6" ry="6" rx="3" y="24" x="47"><animate repeatCount="indefinite" begin="-0.15576323987538943s" dur="0.4672897196261683s" keyTimes="0;1" values="1;0" attributeName="opacity"></animate></rect></g><g transform="rotate(240 50 50)"><rect fill="#3b82f6" height="12" width="6" ry="6" rx="3" y="24" x="47"><animate repeatCount="indefinite" begin="-0.11682242990654207s" dur="0.4672897196261683s" keyTimes="0;1" values="1;0" attributeName="opacity"></animate></rect></g><g transform="rotate(270 50 50)"><rect fill="#3b82f6" height="12" width="6" ry="6" rx="3" y="24" x="47"><animate repeatCount="indefinite" begin="-0.07788161993769471s" dur="0.4672897196261683s" keyTimes="0;1" values="1;0" attributeName="opacity"></animate></rect></g><g transform="rotate(300 50 50)"><rect fill="#3b82f6" height="12" width="6" ry="6" rx="3" y="24" x="47"><animate repeatCount="indefinite" begin="-0.038940809968847356s" dur="0.4672897196261683s" keyTimes="0;1" values="1;0" attributeName="opacity"></animate></rect></g><g transform="rotate(330 50 50)"><rect fill="#3b82f6" height="12" width="6" ry="6" rx="3" y="24" x="47"><animate repeatCount="indefinite" begin="0s" dur="0.4672897196261683s" keyTimes="0;1" values="1;0" attributeName="opacity"></animate></rect></g><g></g></g><!-- [ldio] generated by https://loading.io --></svg>